<svg height='100px' width='100px'  fill="#000000" xmlns="http://www.w3.org/2000/svg" xmlns:xlink="http://www.w3.org/1999/xlink" version="1.1" x="0px" y="0px" viewBox="0 0 100 100" style="enable-background:new 0 0 100 100;" xml:space="preserve"><path d="M50,19.375c0.5527344,0,1-0.4477539,1-1V11c0-0.5522461-0.4472656-1-1-1s-1,0.4477539-1,1v7.375  C49,18.9272461,49.4472656,19.375,50,19.375z"></path><path d="M61.7197266,21.7060547c0.125,0.0517578,0.2548828,0.0766602,0.3828125,0.0766602  c0.3916016,0,0.7646484-0.2329102,0.9238281-0.6176758l2.8222656-6.8134766  c0.2109375-0.5102539-0.03125-1.0952148-0.5410156-1.3066406c-0.5068359-0.2099609-1.0957031,0.0302734-1.3066406,0.5410156  l-2.8222656,6.8134766C60.9677734,20.909668,61.2099609,21.4946289,61.7197266,21.7060547z"></path><path d="M72.3623047,28.6376953c0.2558594,0,0.5117188-0.0976562,0.7070312-0.2929688l5.2148438-5.2148438  c0.390625-0.390625,0.390625-1.0234375,0-1.4140625s-1.0234375-0.390625-1.4140625,0l-5.2148438,5.2148438  c-0.390625,0.390625-0.390625,1.0234375,0,1.4140625C71.8505859,28.5400391,72.1064453,28.6376953,72.3623047,28.6376953z"></path><path d="M78.2939453,38.2802734c0.1591797,0.3847656,0.5322266,0.6176758,0.9238281,0.6176758  c0.1279297,0,0.2578125-0.0249023,0.3828125-0.0766602l6.8134766-2.8222656  c0.5097656-0.2114258,0.7519531-0.7963867,0.5410156-1.3066406c-0.2109375-0.5107422-0.7978516-0.7504883-1.3066406-0.5410156  l-6.8134766,2.8222656C78.3251953,37.1850586,78.0830078,37.7700195,78.2939453,38.2802734z"></path><path d="M13.5859375,35.9990234l6.8134766,2.8222656c0.125,0.0517578,0.2548828,0.0766602,0.3828125,0.0766602  c0.3916016,0,0.7646484-0.2329102,0.9238281-0.6176758c0.2109375-0.5102539-0.03125-1.0952148-0.5410156-1.3066406  l-6.8134766-2.8222656c-0.5068359-0.2099609-1.0957031,0.0302734-1.3066406,0.5410156  C12.8339844,35.2026367,13.0761719,35.7875977,13.5859375,35.9990234z"></path><path d="M26.9306641,28.3447266c0.1953125,0.1953125,0.4511719,0.2929688,0.7070312,0.2929688  s0.5117188-0.0976562,0.7070312-0.2929688c0.390625-0.390625,0.390625-1.0234375,0-1.4140625l-5.2148438-5.2148438  c-0.390625-0.390625-1.0234375-0.390625-1.4140625,0s-0.390625,1.0234375,0,1.4140625L26.9306641,28.3447266z"></path><path d="M36.9736328,21.1650391c0.1591797,0.3847656,0.5322266,0.6176758,0.9238281,0.6176758  c0.1279297,0,0.2578125-0.0249023,0.3828125-0.0766602c0.5097656-0.2114258,0.7519531-0.7963867,0.5410156-1.3066406  l-2.8222656-6.8134766c-0.2109375-0.5107422-0.7998047-0.7504883-1.3066406-0.5410156  c-0.5097656,0.2114258-0.7519531,0.7963867-0.5410156,1.3066406L36.9736328,21.1650391z"></path><path d="M29.2468262,79.1482544c-5.7124023-3.4828491-11.7268066-6.4420166-17.8903809-8.7908325  c-0.5175781-0.1977539-1.09375,0.0620117-1.2910156,0.5786133c-0.1962891,0.5161133,0.0625,1.09375,0.578125,1.2905273  c5.921875,2.2561035,11.7022705,5.0889893,17.2037354,8.4143677c-2.2305908,2.4136963-4.4346924,4.9807739-6.5894775,7.7443237  c-0.3388672,0.4355469-0.2617188,1.0639648,0.1738281,1.4033203C21.6142578,89.9311523,21.8310547,90,22.0458984,90  c0.2978516,0,0.5927734-0.1323242,0.7900391-0.3852539c25.3339844-32.4926758,57.1621094-39.5351562,66.3134766-40.9194336  c0.5458984-0.0825195,0.921875-0.5922852,0.8388672-1.1381836c-0.0820312-0.5463867-0.5908203-0.921875-1.1376953-0.8393555  c-3.1311035,0.4736938-8.8706055,1.6029663-16.0795898,4.1326904  c-0.0540771-12.5612183-10.2875977-22.7645264-22.8618164-22.7645264c-12.5490723,0-22.7662354,10.1646729-22.8588867,22.6928101  c-7.1430664-2.4875488-12.8199463-3.5949707-15.9008789-4.0609741c-0.5478516-0.0825195-1.0556641,0.2929688-1.1376953,0.8393555  c-0.0830078,0.5458984,0.2929688,1.0556641,0.8388672,1.1381836c5.7458496,0.8689575,20.7104492,4.0270996,37.3232422,14.508667  c-3.0595703,2.0501709-6.1591797,4.3375854-9.2591553,6.9126587c-10.9329834-6.7284546-21.0550537-10.2932129-27.651001-12.0980835  c-0.5263672-0.1455078-1.0820312,0.1669922-1.2285156,0.7001953c-0.1455078,0.5327148,0.1679688,1.0830078,0.7011719,1.2285156  c6.3580322,1.7401123,16.0583496,5.1518555,26.5777588,11.5378418  C34.6079102,73.8185425,31.9099121,76.3643799,29.2468262,79.1482544z M29.0598145,51.499939  c-0.0047607-0.1833496-0.013916-0.3656006-0.013916-0.5502319c0-11.5043945,9.359375-20.8637695,20.8632812-20.8637695  c11.5048828,0,20.8642578,9.359375,20.8642578,20.8637695c0,0.2120361-0.0109863,0.4213257-0.0175781,0.6318359  c-6.1843262,2.3129272-13.3061523,5.6436157-20.7365723,10.4122314  C42.5097656,57.1675415,35.2995605,53.8165283,29.0598145,51.499939z"></path><path d="M88.7363281,58.0185547c-13.0478516,3.5712891-32.3359375,11.7250977-50.1240234,30.2890625  c-0.3828125,0.3989258-0.3691406,1.0317383,0.0302734,1.4140625c0.1933594,0.1855469,0.4423828,0.277832,0.6914062,0.277832  c0.2626953,0,0.5253906-0.1030273,0.7216797-0.3081055c17.4726562-18.234375,36.4042969-26.2392578,49.2080078-29.7441406  c0.5332031-0.1455078,0.8466797-0.6958008,0.7011719-1.2285156C89.8183594,58.1855469,89.265625,57.8740234,88.7363281,58.0185547z"></path><path d="M88.6435547,70.3574219c-11.0380859,4.206543-21.3564453,10.2182617-30.6699219,17.8696289  c-0.4267578,0.3505859-0.4882812,0.9804688-0.1376953,1.4072266c0.1972656,0.2407227,0.484375,0.3652344,0.7734375,0.3652344  c0.2226562,0,0.4472656-0.0742188,0.6337891-0.2275391c9.1455078-7.5131836,19.2773438-13.4165039,30.1132812-17.5454102  c0.515625-0.1967773,0.7744141-0.7744141,0.578125-1.2905273C89.7373047,70.4194336,89.1582031,70.159668,88.6435547,70.3574219z"></path></svg>