<svg height='100px' width='100px'  fill="#000000" xmlns="http://www.w3.org/2000/svg" xmlns:xlink="http://www.w3.org/1999/xlink" version="1.1" x="0px" y="0px" viewBox="0 0 100 100" style="enable-background:new 0 0 100 100;" xml:space="preserve"><g><path d="M80.682,5.899L85,4.371L83.008,0L58.166,8.788c-2.164-2.913-5.966-4.542-9.9-3.882c-5.227,0.877-8.783,5.474-8.203,10.428   l-24.873,8.799l1.994,4.371L0,57.143C0,67.662,8.955,76.19,20,76.19s20-8.528,20-19.048L21.83,26.86l20.004-7.076   c1.364,1.835,3.379,3.159,5.666,3.723v57.599C37.636,82.278,30,90.288,30,100h40c0-9.712-7.636-17.722-17.5-18.895V23.504   c4.804-1.177,7.99-5.559,7.438-10.267l19.014-6.726L60,38.095c0,10.519,8.955,19.047,20,19.047s20-8.528,20-19.047L80.682,5.899z    M33.266,63.795c-0.141-0.074-0.303-0.12-0.482-0.12c-0.797,0-1.333,0.858-0.885,1.604c0.068,0.101,0.146,0.183,0.23,0.251   c-0.287,0.374-0.591,0.737-0.913,1.083c-0.177-0.293-0.492-0.502-0.883-0.502c-0.798,0-1.333,0.859-0.884,1.605   c0.08,0.119,0.176,0.213,0.277,0.287c-0.369,0.302-0.755,0.585-1.154,0.852c-0.179-0.165-0.416-0.271-0.693-0.271   c-0.676,0-1.161,0.617-1.021,1.26c-2.056,1.012-4.387,1.585-6.857,1.585c-2.134,0-4.164-0.429-6.002-1.198   c0.019-0.027,0.038-0.055,0.056-0.084c0.392-0.68-0.097-1.563-0.901-1.563c-0.482,0-0.867,0.314-0.998,0.728   c-0.579-0.341-1.131-0.718-1.654-1.128c0.42,0.081,0.868-0.11,1.1-0.51c0.391-0.68-0.098-1.563-0.902-1.563   c-0.732,0-1.243,0.727-0.972,1.424c-0.612-0.551-1.179-1.148-1.688-1.789c0.424,0.085,0.875-0.107,1.107-0.51   c0.393-0.679-0.096-1.562-0.9-1.562c-0.55,0-0.975,0.407-1.039,0.905c-0.541-0.84-0.994-1.734-1.345-2.676h3.848   c-0.095,0.276-0.078,0.598,0.104,0.902c0.48,0.706,1.414,0.602,1.787-0.043c0.159-0.277,0.17-0.588,0.075-0.859h2.942   c-0.096,0.276-0.078,0.598,0.104,0.902c0.479,0.706,1.414,0.602,1.786-0.043c0.16-0.277,0.171-0.588,0.076-0.859h2.938   c-0.096,0.276-0.078,0.598,0.104,0.902c0.479,0.706,1.414,0.602,1.786-0.043c0.16-0.277,0.171-0.588,0.076-0.859h2.947   c-0.096,0.276-0.078,0.598,0.104,0.902c0.479,0.706,1.414,0.602,1.786-0.043c0.16-0.277,0.171-0.588,0.076-0.859h2.941   c-0.096,0.276-0.078,0.598,0.105,0.902c0.479,0.706,1.414,0.602,1.785-0.043c0.16-0.277,0.172-0.588,0.076-0.859h2.83   C33.896,62.559,33.603,63.189,33.266,63.795z M34.242,57.143H5.758L20,33.408L34.242,57.143z M54.006,86.233   c-0.199,0.313-0.235,0.731-0.001,1.122c0.479,0.706,1.414,0.602,1.786-0.043c0.08-0.14,0.121-0.287,0.133-0.435   c3.818,1.569,6.821,4.605,8.217,8.36H35.859c1.389-3.735,4.368-6.759,8.158-8.336c0.017,0.15,0.065,0.305,0.155,0.453   c0.479,0.706,1.413,0.602,1.786-0.043c0.201-0.352,0.168-0.756-0.021-1.064C47.23,85.9,48.592,85.715,50,85.715   C51.387,85.715,52.73,85.896,54.006,86.233z M50.867,18.976c-0.144,0.024-0.287,0.039-0.43,0.051   c0.507-0.257,0.758-0.907,0.408-1.49c-0.48-0.706-1.414-0.601-1.787,0.043c-0.303,0.526-0.076,1.172,0.414,1.438   c-2.158-0.22-4.002-1.769-4.396-3.906c-0.055-0.297-0.078-0.593-0.074-0.884c0.017,0.001,0.033,0.003,0.051,0.003   c0.797,0,1.333-0.859,0.884-1.604c-0.124-0.183-0.279-0.311-0.446-0.389c0.249-0.496,0.586-0.949,0.996-1.336   c0.088,0.464,0.482,0.857,1.02,0.857c0.798,0,1.334-0.859,0.885-1.605c-0.078-0.116-0.17-0.208-0.269-0.281   c0.319-0.124,0.657-0.218,1.011-0.277c0.939-0.158,1.862-0.048,2.691,0.263c-0.123,0.086-0.23,0.199-0.311,0.338   c-0.393,0.679,0.096,1.562,0.9,1.562c0.551,0,0.976-0.409,1.039-0.907c0.428,0.389,0.784,0.849,1.047,1.368   c-0.207,0.086-0.391,0.238-0.514,0.45c-0.391,0.679,0.098,1.562,0.902,1.562c0.037,0,0.074-0.003,0.111-0.007   C55.031,16.518,53.311,18.565,50.867,18.976z M80,14.36l14.242,23.735H65.758L80,14.36z M87.797,50.293   c0.08-0.267,0.055-0.572-0.119-0.862c-0.479-0.706-1.414-0.601-1.785,0.043c-0.335,0.58-0.027,1.306,0.57,1.506   c-1.826,0.835-3.855,1.328-5.996,1.391c-0.016-0.155-0.064-0.313-0.157-0.468c-0.479-0.706-1.413-0.602-1.786,0.043   c-0.064,0.113-0.104,0.231-0.123,0.351c-1.982-0.202-3.851-0.772-5.527-1.639c0.266-0.319,0.34-0.792,0.078-1.227   c-0.479-0.706-1.414-0.601-1.786,0.043c-0.021,0.037-0.04,0.075-0.056,0.114c-0.447-0.315-0.877-0.653-1.285-1.013   c0.676-0.137,1.08-0.904,0.672-1.582c-0.479-0.706-1.413-0.601-1.785,0.043c-0.059,0.102-0.096,0.209-0.117,0.317   c-0.372-0.416-0.72-0.852-1.041-1.306c0.56-0.227,0.855-0.914,0.486-1.527c-0.396-0.586-1.107-0.612-1.551-0.236   c-0.234-0.463-0.445-0.939-0.628-1.428h2.738c0.097,0.453,0.486,0.833,1.014,0.833c0.522,0,0.931-0.369,1.024-0.833h2.866   c0.097,0.453,0.486,0.833,1.015,0.833c0.521,0,0.93-0.369,1.023-0.833h2.871c0.096,0.453,0.486,0.833,1.014,0.833   c0.521,0,0.93-0.369,1.024-0.833h2.876c0.096,0.453,0.486,0.833,1.014,0.833c0.521,0,0.93-0.369,1.024-0.833h2.866   c0.097,0.453,0.486,0.833,1.014,0.833c0.521,0,0.93-0.369,1.024-0.833h2.87c0.074,0.351,0.326,0.656,0.682,0.776   C92.59,46.407,90.469,48.738,87.797,50.293z M14.054,65.236c-0.372,0.645-1.307,0.749-1.786,0.043   c-0.449-0.746,0.087-1.604,0.885-1.604C13.957,63.675,14.445,64.558,14.054,65.236z M16.508,67.674   c-0.372,0.644-1.307,0.748-1.786,0.043c-0.449-0.746,0.087-1.605,0.884-1.605C16.41,66.111,16.898,66.994,16.508,67.674z    M18.958,70.146c-0.372,0.644-1.307,0.748-1.786,0.043c-0.449-0.746,0.088-1.605,0.885-1.605   C18.861,68.584,19.35,69.467,18.958,70.146z M18.958,65.236c-0.372,0.645-1.307,0.749-1.786,0.043   c-0.449-0.746,0.088-1.604,0.885-1.604C18.861,63.675,19.35,64.558,18.958,65.236z M21.412,67.674   c-0.372,0.644-1.307,0.748-1.786,0.043c-0.448-0.746,0.087-1.605,0.884-1.605C21.314,66.111,21.804,66.994,21.412,67.674z    M23.872,70.146c-0.372,0.644-1.307,0.748-1.786,0.043c-0.449-0.746,0.088-1.605,0.885-1.605   C23.775,68.584,24.264,69.467,23.872,70.146z M23.872,65.236c-0.372,0.645-1.307,0.749-1.786,0.043   c-0.449-0.746,0.088-1.604,0.885-1.604C23.775,63.675,24.264,64.558,23.872,65.236z M26.326,67.674   c-0.372,0.644-1.307,0.748-1.786,0.043c-0.448-0.746,0.087-1.605,0.884-1.605C26.229,66.111,26.718,66.994,26.326,67.674z    M28.781,65.236c-0.373,0.645-1.308,0.749-1.787,0.043c-0.448-0.746,0.088-1.604,0.885-1.604   C28.684,63.675,29.172,64.558,28.781,65.236z M38.596,94.694c-0.371,0.645-1.307,0.749-1.785,0.044   c-0.449-0.746,0.087-1.605,0.885-1.605C38.5,93.133,38.988,94.016,38.596,94.694z M41.05,92.222   c-0.372,0.645-1.306,0.749-1.786,0.044c-0.448-0.746,0.088-1.605,0.885-1.605C40.953,90.66,41.441,91.543,41.05,92.222z    M43.504,94.694c-0.371,0.645-1.307,0.749-1.785,0.044c-0.449-0.746,0.087-1.605,0.885-1.605   C43.408,93.133,43.896,94.016,43.504,94.694z M43.504,89.785c-0.371,0.645-1.307,0.749-1.785,0.043   c-0.449-0.746,0.087-1.605,0.885-1.605C43.408,88.223,43.896,89.105,43.504,89.785z M45.959,92.222   c-0.373,0.645-1.307,0.749-1.786,0.044c-0.449-0.746,0.087-1.605,0.884-1.605C45.861,90.66,46.35,91.543,45.959,92.222z    M48.409,94.694c-0.372,0.645-1.307,0.749-1.786,0.044c-0.449-0.746,0.088-1.605,0.885-1.605   C48.313,93.133,48.801,94.016,48.409,94.694z M48.409,89.785c-0.372,0.645-1.307,0.749-1.786,0.043   c-0.449-0.746,0.088-1.605,0.885-1.605C48.313,88.223,48.801,89.105,48.409,89.785z M50.863,92.222   c-0.372,0.645-1.307,0.749-1.786,0.044c-0.448-0.746,0.087-1.605,0.884-1.605C50.766,90.66,51.254,91.543,50.863,92.222z    M49.961,85.75c0.805,0,1.293,0.883,0.902,1.563c-0.372,0.645-1.307,0.749-1.786,0.043C48.629,86.609,49.164,85.75,49.961,85.75z    M51.551,94.738c-0.449-0.746,0.088-1.605,0.885-1.605c0.805,0,1.293,0.883,0.901,1.562C52.965,95.339,52.03,95.443,51.551,94.738z    M51.551,89.828c-0.449-0.746,0.088-1.605,0.885-1.605c0.805,0,1.293,0.883,0.901,1.563C52.965,90.43,52.03,90.534,51.551,89.828z    M54.005,92.266c-0.448-0.746,0.087-1.605,0.884-1.605c0.805,0,1.293,0.883,0.902,1.562C55.419,92.866,54.484,92.971,54.005,92.266   z M56.459,94.738c-0.449-0.746,0.088-1.605,0.885-1.605c0.805,0,1.293,0.883,0.901,1.562   C57.873,95.339,56.938,95.443,56.459,94.738z M56.459,89.828c-0.449-0.746,0.088-1.605,0.885-1.605   c0.805,0,1.293,0.883,0.901,1.563C57.873,90.43,56.938,90.534,56.459,89.828z M58.914,92.266C58.465,91.52,59,90.66,59.798,90.66   c0.805,0,1.293,0.883,0.901,1.562C60.328,92.866,59.393,92.971,58.914,92.266z M61.364,94.738   c-0.449-0.746,0.087-1.605,0.884-1.605c0.805,0,1.293,0.883,0.902,1.562C62.777,95.339,61.844,95.443,61.364,94.738z    M92.582,44.522c0.449,0.746-0.087,1.605-0.885,1.605c-0.805,0-1.293-0.883-0.9-1.562C91.168,43.921,92.104,43.816,92.582,44.522z    M90.129,46.995c0.448,0.746-0.088,1.605-0.885,1.605c-0.805,0-1.293-0.883-0.901-1.562C88.715,46.394,89.649,46.289,90.129,46.995   z M87.678,44.522c0.449,0.746-0.087,1.605-0.885,1.605c-0.805,0-1.293-0.883-0.9-1.562C86.264,43.921,87.199,43.816,87.678,44.522z    M85.224,46.995c0.449,0.746-0.087,1.605-0.884,1.605c-0.805,0-1.293-0.883-0.902-1.562C83.81,46.394,84.744,46.289,85.224,46.995z    M82.764,44.522c0.449,0.746-0.087,1.605-0.885,1.605c-0.805,0-1.293-0.883-0.9-1.562C81.35,43.921,82.285,43.816,82.764,44.522z    M82.764,49.432c0.449,0.746-0.087,1.605-0.885,1.605c-0.805,0-1.293-0.883-0.9-1.562C81.35,48.831,82.285,48.726,82.764,49.432z    M80.31,46.995c0.449,0.746-0.087,1.605-0.884,1.605c-0.805,0-1.293-0.883-0.902-1.562C78.896,46.394,79.83,46.289,80.31,46.995z    M77.855,44.522c0.449,0.746-0.088,1.605-0.885,1.605c-0.805,0-1.293-0.883-0.901-1.562C76.441,43.921,77.376,43.816,77.855,44.522   z M77.855,49.432c0.449,0.746-0.088,1.605-0.885,1.605c-0.805,0-1.293-0.883-0.901-1.562   C76.441,48.831,77.376,48.726,77.855,49.432z M75.401,46.995c0.449,0.746-0.087,1.605-0.884,1.605   c-0.805,0-1.293-0.883-0.902-1.562C73.987,46.394,74.922,46.289,75.401,46.995z M72.951,44.522   c0.449,0.746-0.088,1.605-0.885,1.605c-0.805,0-1.293-0.883-0.901-1.562C71.537,43.921,72.472,43.816,72.951,44.522z    M53.299,15.064c0.449,0.746-0.087,1.604-0.885,1.604c-0.805,0-1.293-0.883-0.9-1.562C51.885,14.463,52.82,14.358,53.299,15.064z    M50.846,12.627c0.448,0.746-0.088,1.604-0.885,1.604c-0.805,0-1.293-0.883-0.902-1.562C49.432,12.025,50.365,11.921,50.846,12.627   z M48.391,15.064c0.449,0.746-0.087,1.604-0.885,1.604c-0.805,0-1.293-0.883-0.901-1.562   C46.977,14.463,47.911,14.358,48.391,15.064z"></path></g></svg>