<svg height='100px' width='100px'  fill="#003459" xmlns:x="http://ns.adobe.com/Extensibility/1.0/" xmlns:i="http://ns.adobe.com/AdobeIllustrator/10.0/" xmlns:graph="http://ns.adobe.com/Graphs/1.0/" xmlns="http://www.w3.org/2000/svg" xmlns:xlink="http://www.w3.org/1999/xlink" version="1.0" x="0px" y="0px" viewBox="0 0 100 100" enable-background="new 0 0 100 100" xml:space="preserve"><g><g i:extraneous="self"><g><path d="M49.5,14.2c-19.7,0-35.8,16-35.8,35.8s16,35.8,35.8,35.8s35.8-16,35.8-35.8S69.3,14.2,49.5,14.2z M49.5,83.8     c-18.6,0-33.8-15.1-33.8-33.8s15.1-33.8,33.8-33.8S83.3,31.4,83.3,50S68.2,83.8,49.5,83.8z"></path><path d="M51.6,64.5c-1.2,1.3-2.2,1.9-2.9,1.9c-0.4,0-0.7-0.1-0.8-0.4c-0.1-0.2-0.2-0.5-0.2-0.8c0-0.2,0.1-1,0.4-2.2L54.7,40     c0-0.1,0-0.2-0.1-0.3s-0.6,0-1.5,0.2c-0.9,0.2-1.9,0.4-2.9,0.6c-0.8,0.1-1.6,0.3-2.3,0.4c-0.8,0.1-2,0.3-3.8,0.5v1.1     c1.7,0,2.8,0.1,3.4,0.3c0.6,0.2,0.9,0.7,0.9,1.4c0,0.2,0,0.4-0.1,0.6c0,0.2-0.1,0.4-0.2,0.7L43.3,62c-0.2,0.9-0.4,1.6-0.5,2     c-0.1,0.5-0.1,1-0.1,1.6c0,1,0.3,2,0.9,2.7c0.6,0.8,1.4,1.2,2.3,1.2c1.6,0,3.2-0.8,4.8-2.3c1-1,2.4-2.6,4-4.9L55,62l-0.8-0.7     C53.2,62.7,52.3,63.7,51.6,64.5z"></path><path d="M53.7,25.7c-0.9,0-1.6,0.3-2.2,1c-0.6,0.7-0.9,1.5-0.9,2.5c0,1,0.3,1.8,0.9,2.5c0.6,0.7,1.4,1,2.2,1c0.9,0,1.6-0.3,2.3-1     c0.6-0.7,0.9-1.5,0.9-2.5c0-1-0.3-1.8-0.9-2.5C55.4,26,54.6,25.7,53.7,25.7z"></path></g></g></g></svg>