<svg height='100px' width='100px'  fill="#003459" xmlns="http://www.w3.org/2000/svg" xmlns:xlink="http://www.w3.org/1999/xlink" version="1.1" x="0px" y="0px" viewBox="0 0 64 64" style="enable-background:new 0 0 64 64;" xml:space="preserve"><g><path d="M62.707,31.293l-30-30c-0.391-0.391-1.023-0.391-1.414,0l-3,3C28.098,4.488,28,4.744,28,5v0.331   c0,8.547-3.328,16.583-9.372,22.627l-9.456,9.456C8.416,38.17,8,39.175,8,40.243v0.515c0,0.786,0.229,1.536,0.649,2.179L7,44.586   l-1.293-1.293c-0.391-0.391-1.023-0.391-1.414,0l-3,3c-0.391,0.391-0.391,1.023,0,1.414l15,15C16.488,62.902,16.744,63,17,63   s0.512-0.098,0.707-0.293l3-3c0.391-0.391,0.391-1.023,0-1.414L19.414,57l1.651-1.651C21.71,55.766,22.469,56,23.242,56h0.516   c1.054,0,2.084-0.427,2.828-1.172L28,53.414l9.293,9.293C37.488,62.902,37.744,63,38,63s0.512-0.098,0.707-0.293l7-7   c0.391-0.391,0.391-1.023,0-1.414l-3-3c-0.391-0.391-1.023-0.391-1.414,0L40,52.586L38.414,51l3.293-3.293   c0.245-0.245,0.346-0.6,0.267-0.937c-0.08-0.337-0.328-0.609-0.657-0.719l-4.435-1.478C42.821,39.04,50.509,36,58.669,36H59   c0.256,0,0.512-0.098,0.707-0.293l3-3C63.098,32.316,63.098,31.684,62.707,31.293z M20.042,29.373   c5.944-5.944,9.409-13.701,9.893-22.023l26.716,26.716c-8.323,0.484-16.08,3.95-22.023,9.894L32,46.586L17.414,32L20.042,29.373z    M29,49.586L14.414,35L16,33.414L30.586,48L29,49.586z M17,60.586L3.414,47L5,45.414L18.586,59L17,60.586z M8.414,46L10,44.414   L19.586,54L18,55.586L8.414,46z M25.172,53.414C24.8,53.787,24.284,54,23.758,54h-0.516c-0.526,0-1.042-0.213-1.414-0.586   L10.586,42.172C10.208,41.793,10,41.291,10,40.757v-0.515c0-0.534,0.208-1.036,0.586-1.415L13,36.414L27.586,51L25.172,53.414z    M38.707,56.707L42,53.414L43.586,55L38,60.586L29.414,52L33,48.414L38.586,54l-1.293,1.293L38.707,56.707z M37,49.586L34.414,47   l0.856-0.856l3.878,1.293L37,49.586z M59,33.586L30.414,5L32,3.414L60.586,32L59,33.586z"></path><rect x="51.169" y="13" transform="matrix(0.8575 -0.5145 0.5145 0.8575 0.92 31.3214)" width="11.662" height="2"></rect><rect x="44.169" y="6" transform="matrix(0.5146 -0.8574 0.8574 0.5146 18.2662 46.2679)" width="11.662" height="2"></rect></g></svg>