<svg height='100px' width='100px'  fill="#000000" xmlns="http://www.w3.org/2000/svg" xmlns:xlink="http://www.w3.org/1999/xlink" version="1.1" x="0px" y="0px" viewBox="0 0 100 100" enable-background="new 0 0 100 100" xml:space="preserve"><path d="M86.178,1.5H70.457c-0.553,0-1,0.448-1,1s0.447,1,1,1h13.305L63.208,24.056c-3.543-3.199-8.067-4.968-12.875-4.968  c-5.144,0-9.979,2.003-13.616,5.641c-1.182,1.182-2.171,2.5-2.995,3.905c-0.543-0.046-1.09-0.083-1.645-0.083  c-10.618,0-19.255,8.638-19.255,19.255c0,10.28,8.104,18.68,18.255,19.205v12.249H18.893c-0.552,0-1,0.447-1,1s0.448,1,1,1h12.185  V97.5c0,0.553,0.448,1,1,1s1-0.447,1-1V81.259h12.185c0.552,0,1-0.447,1-1s-0.448-1-1-1H33.077V67.01  c6.651-0.344,12.41-4.065,15.598-9.491c0.549,0.047,1.101,0.081,1.658,0.081c5.143,0,9.979-2.003,13.617-5.641  c7.269-7.27,7.478-18.939,0.671-26.488L85.178,4.912v13.309c0,0.552,0.447,1,1,1s1-0.448,1-1V2.5C87.178,1.948,86.73,1.5,86.178,1.5  z M32.077,65.061c-9.515,0-17.255-7.741-17.255-17.256c0-9.514,7.741-17.255,17.255-17.255c0.216,0,0.426,0.024,0.641,0.032  c-1.065,2.416-1.64,5.042-1.64,7.762c0,5.143,2.003,9.979,5.64,13.615c2.72,2.721,6.111,4.525,9.8,5.264  C43.434,61.935,38.117,65.061,32.077,65.061z M47.566,55.36c-3.556-0.57-6.839-2.219-9.435-4.815  c-3.259-3.259-5.054-7.592-5.054-12.201c0-2.664,0.617-5.228,1.752-7.553c8.208,1.325,14.502,8.438,14.502,17.014  C49.333,50.517,48.686,53.075,47.566,55.36z M62.535,50.545c-3.26,3.26-7.594,5.055-12.203,5.055c-0.218,0-0.432-0.023-0.648-0.031  c1.052-2.378,1.648-5,1.648-7.764c0-9.317-6.653-17.106-15.458-18.875c0.649-0.993,1.399-1.929,2.257-2.787  c3.259-3.26,7.593-5.055,12.202-5.055c4.609,0,8.942,1.795,12.202,5.055C69.262,32.87,69.262,43.816,62.535,50.545z"></path></svg>