<svg height='100px' width='100px'  fill="#000000" xmlns="http://www.w3.org/2000/svg" viewBox="0 0 100 100" x="0px" y="0px"><title>OnTopic</title><path d="M87.5,89.5h-75a2.0001,2.0001,0,0,1-2-2V15.625a2,2,0,0,1,4,0V85.5h73a2,2,0,0,1,0,4Z"></path><path d="M28.125,73.875a1.99971,1.99971,0,0,1-1.78906-1.10547L23.76367,67.625H21.875a1.99971,1.99971,0,0,1-1.78906-1.10547l-3.125-6.25a2.00023,2.00023,0,0,1,3.57813-1.78906L23.11133,63.625H25a1.99971,1.99971,0,0,1,1.78906,1.10547L28.125,67.40332l4.46094-8.92285a2.00862,2.00862,0,0,1,.375-.51953l6.25-6.25A2.00025,2.00025,0,0,1,40.625,51.125H43.75a2.00025,2.00025,0,0,1,1.41406.58594L50,56.54688,60.69434,45.85254l2.99023-11.96289a1.99963,1.99963,0,0,1,3.35449-.92871l6.25,6.25a2.00862,2.00862,0,0,1,.375.51953L75,42.40332l1.33594-2.67285a2.00862,2.00862,0,0,1,.375-.51953l2.89551-2.89551,2.97949-5.96a2.00023,2.00023,0,1,1,3.57813,1.78906l-3.125,6.25a2.00862,2.00862,0,0,1-.375.51953l-2.89551,2.89551-2.97949,5.96a2.00042,2.00042,0,0,1-3.57812,0l-2.97949-5.96L66.709,38.28711l-2.26855,9.07324a1.99272,1.99272,0,0,1-.52637.92871l-12.5,12.5a1.99927,1.99927,0,0,1-2.82812,0L42.92188,55.125H41.45313l-5.43457,5.43457-6.10449,12.21A1.99971,1.99971,0,0,1,28.125,73.875Z"></path></svg>