<svg height='100px' width='100px'  fill="#000000" xmlns:x="http://ns.adobe.com/Extensibility/1.0/" xmlns:i="http://ns.adobe.com/AdobeIllustrator/10.0/" xmlns:graph="http://ns.adobe.com/Graphs/1.0/" xmlns="http://www.w3.org/2000/svg" xmlns:xlink="http://www.w3.org/1999/xlink" version="1.1" x="0px" y="0px" viewBox="0 0 100 100" 
enable-background="new 0 0 100 100" xml:space="preserve"><g><g i:extraneous="self">

<g><path d="M33.7,65.2c0,0,0.6-3,2.8-3.2c2.2-0.2,5.4-0.7,6.6,0.1s4.6,1.3,6,1c1.4-0.3,3.8-0.5,6.1-0.8     c3.5-0.5,4.2,2.2,4,2.8c-0.4,1-5.7,2-11.7,1.7c-2.8,0-1.7,2.3-0.1,1.5c1.6-0.8,7.8,0.2,12-2c1.9-1.2,0-3.6-1.2-4.3     c0,0,3.1-1.4,5.1-0.7s12.1-12.1,13.5-12.1c1.4,0.1,3.3,2.2,1,4.7c-2.3,2.5-15,20.9-19.9,23.3c-4.8,2.4-18.8-0.9-21.2-0.7     c-2.4,0.2-15.8,3.3-15.8,3.3V66.4L33.7,65.2z"></path><g><g><g><path   d="M50,55c-9.6,0-17.5-7.8-17.5-17.5S40.4,20.1,50,20.1c9.6,0,17.5,7.8,17.5,17.5S59.6,55,50,55z         M50,21.1c-9.1,0-16.4,7.4-16.4,16.4S40.9,53.9,50,53.9s16.4-7.4,16.4-16.4S59.1,21.1,50,21.1z"></path></g></g><g><path   d="M51.3,29.6v6.5c1,0.3,1.7,0.6,2.3,0.8c0.5,0.2,1.2,0.6,1.9,1c0.7,0.4,1.2,1,1.5,1.7       c0.3,0.7,0.5,1.5,0.5,2.4c0,1.5-0.6,2.8-1.7,3.8c-1.1,1-2.6,1.5-4.5,1.7v3.8h-1.7v-3.8c-1.3-0.1-2.6-0.4-3.8-0.9       c-1.2-0.5-2.3-1.2-3.2-2.1l1-2.1c1.7,1.7,3.7,2.6,6,2.8V38c-0.9-0.3-1.6-0.5-2.2-0.7c-0.6-0.2-1.2-0.6-1.8-1       c-0.6-0.4-1.1-1-1.4-1.6c-0.3-0.6-0.5-1.4-0.5-2.3c0-1.4,0.5-2.6,1.6-3.5c1.1-0.9,2.5-1.5,4.3-1.6v-3.5h1.7v3.5       c2.1,0.1,4,0.7,5.7,1.8l-1,2.1C54.6,30.3,53,29.8,51.3,29.6z M46.2,32.2c0,0.9,0.3,1.5,0.9,2c0.6,0.5,1.4,0.9,2.5,1.3v-6       c-1.1,0.1-1.9,0.4-2.5,0.8C46.5,30.9,46.2,31.5,46.2,32.2z M54.9,42.1c0-0.9-0.3-1.6-0.9-2.1c-0.6-0.5-1.5-1-2.7-1.3v6.5       c1.1-0.1,2-0.5,2.7-1C54.6,43.6,54.9,42.9,54.9,42.1z"></path></g></g></g></g></g></svg>