<svg width="87" height="45" viewBox="0 0 87 45" fill="none" xmlns="http://www.w3.org/2000/svg">
<path d="M0 4H49C60.0457 4 69 12.9543 69 24V44H20C8.9543 44 0 35.0457 0 24V4Z" fill="#344A55"/>
<path d="M17.575 22.075C17.575 23.575 17.675 24.8833 17.875 26C18.075 27.1167 18.4083 28.05 18.875 28.8C19.3417 29.55 19.9417 30.1083 20.675 30.475C21.4083 30.8417 22.3167 31.025 23.4 31.025C24.4667 31.025 25.3667 30.8417 26.1 30.475C26.85 30.1083 27.4583 29.55 27.925 28.8C28.3917 28.05 28.725 27.1167 28.925 26C29.125 24.8833 29.225 23.575 29.225 22.075C29.225 20.925 29.15 19.8167 29 18.75C28.85 17.6667 28.5583 16.7083 28.125 15.875C27.7083 15.025 27.1167 14.35 26.35 13.85C25.6 13.35 24.6167 13.1 23.4 13.1C22.1833 13.1 21.1917 13.35 20.425 13.85C19.675 14.35 19.0833 15.025 18.65 15.875C18.2333 16.7083 17.95 17.6667 17.8 18.75C17.65 19.8167 17.575 20.925 17.575 22.075ZM14.7 22.075C14.7 20.7417 14.9583 19.5083 15.475 18.375C16.0083 17.2417 16.6833 16.2583 17.5 15.425C18.3333 14.5917 19.2667 13.9417 20.3 13.475C21.3333 12.9917 22.3667 12.75 23.4 12.75C24.5 12.75 25.5667 12.9917 26.6 13.475C27.65 13.9417 28.5833 14.5917 29.4 15.425C30.2167 16.2583 30.8667 17.2417 31.35 18.375C31.85 19.5083 32.1 20.7417 32.1 22.075C32.1 23.2417 31.875 24.3833 31.425 25.5C30.975 26.6167 30.3583 27.6083 29.575 28.475C28.7917 29.3417 27.8667 30.0417 26.8 30.575C25.75 31.1083 24.6167 31.375 23.4 31.375C22.15 31.375 20.9917 31.1167 19.925 30.6C18.8583 30.0833 17.9333 29.4 17.15 28.55C16.3833 27.6833 15.7833 26.6917 15.35 25.575C14.9167 24.4417 14.7 23.275 14.7 22.075ZM34.5508 30.65H36.4758V20.625H34.5508V20.275H38.5758V22.95H38.6258C38.7258 22.7333 38.8674 22.4583 39.0508 22.125C39.2508 21.7917 39.5174 21.4667 39.8508 21.15C40.1841 20.8333 40.6008 20.5667 41.1008 20.35C41.6008 20.1167 42.2091 20 42.9258 20C44.0258 20 44.9174 20.2667 45.6008 20.8C46.3008 21.3333 46.6508 22.1833 46.6508 23.35V30.65H48.5758V31H42.5758V30.65H44.5008V22.575C44.5008 21.925 44.3424 21.3917 44.0258 20.975C43.7258 20.5583 43.2508 20.35 42.6008 20.35C42.0674 20.35 41.5591 20.4667 41.0758 20.7C40.5924 20.9333 40.1674 21.2583 39.8008 21.675C39.4341 22.0917 39.1424 22.5833 38.9258 23.15C38.7258 23.7167 38.6258 24.3333 38.6258 25V30.65H40.5508V31H34.5508V30.65ZM49.334 32.875H61.834V33.65H49.334V32.875Z" fill="white"/>
</svg>
